<?xml version="1.0" encoding="utf-8"?>
<!-- Generator: Adobe Illustrator 25.2.1, SVG Export Plug-In . SVG Version: 6.00 Build 0)  -->
<svg version="1.1" id="Lager_1" xmlns="http://www.w3.org/2000/svg" xmlns:xlink="http://www.w3.org/1999/xlink" x="0px" y="0px"
	 viewBox="0 0 566.93 283.46" style="enable-background:new 0 0 566.93 283.46;" xml:space="preserve">
<style type="text/css">
	.st0{fill:#3F54FA;}
	.st1{fill:#FFC4A8;}
	.st2{fill:#05464F;}
	.st3{fill:#195054;}
	.st4{fill:#2F1A15;}
	.st5{fill:#DA7D0E;}
	.st6{fill:#FFAA00;}
	.st7{fill:#FCDEC9;}
	.st8{fill:#FBC458;}
	.st9{fill:#A14B24;}
	.st10{fill:#EF765E;}
</style>
<g>
	<g>
		<polygon class="st0" points="461.62,193.67 408.92,193.67 407.28,144.8 460.89,147.45 		"/>
		<g>
			<g>
				<path class="st1" d="M422.06,187.4c6.35-4.64,17.06-2.02,25.13-1.73c10.73,0.39,11.35-4.11,13.61-6.83
					c2.11-2.54,3.05-3.51,4.11-10.93c0.94-6.57,2.48-16.17-1.76-26.48c-1.03-2.5-2.35-51.27-0.87-53.98
					c3.24-5.91,51.52-17.17,51.52-17.17c2.12,0.42,2.87-2.15,6.01,4.11c3.42,6.82,4.6,15.87,4.58,20.53c-0.02,4.4-0.38,6,0.64,9.04
					c1.02,3.01,3.27,3.55,8.08,11.81c1.59,2.73,2.74,2.84,2.27,4.97c-0.6,2.69-5.58,2.41-6.43,4.95c-0.3,0.89,0.67,2.72,1.64,4.37
					c0.54,0.91,0.89,1.55,0.28,2.82c-1.19,2.48-3.92,1.39-4.17,3.21c-0.19,1.36,3.06,0.9,2.42,4.45c-0.27,1.5-2.22,0.5-3.27,2.26
					c-1.46,2.45,0.36,5.16-0.41,7.87c-0.79,2.8-3.35,4.53-7.99,4.34c-4.74-0.19-10.23-0.75-15.82-1.86c-3.44-0.68-4.9,0.8-4.76,3.41
					c0.79,14.3-3.16,20.75,2.9,24.55c8.72,5.46,32.9-4.89,41.13,10.45c4.56,8.5,7.58,19.47,9.68,28.55c0.02,0.1,0.05,0.21,0.07,0.32
					c4.01,17.2-8.99,33.68-26.65,33.68H418.41c-0.94-16.46-1.41-32.07-1.54-48.31C416.81,198.3,415.36,192.29,422.06,187.4z"/>
				<path class="st2" d="M550.58,220.11c-2.1-9.08-5.12-20.05-9.68-28.55c-7.68-14.32-29.25-6.25-39.19-9.56
					c4.42,7.12-0.04,24.96-3.27,31.14c-9.55-14.33-22.76-24.86-38.74-31.97c-1.69,1.74-3.67,4.81-12.51,4.5
					c-8.08-0.29-18.79-2.91-25.13,1.73c-6.7,4.9-5.25,10.9-5.19,18.4c0.13,16.24,0.59,31.85,1.54,48.31H524
					c17.66,0,30.66-16.48,26.65-33.68C550.63,220.32,550.61,220.21,550.58,220.11z"/>
			</g>
			<path class="st3" d="M491.87,50.63c14.77,3.06,25.75,13.14,30.29,29.78c-9.71,1.03-27.62,1.54-36.26,21.68
				c-6.56,15.29-4.06,23.15-6.91,33.52c-3.77,13.68-5.25,17.38-12.76,21.15c-0.88-33.12-33.12-25.12-31.34-67.15
				C436.3,56.49,468.89,45.87,491.87,50.63z"/>
		</g>
		<path class="st2" d="M491.87,50.63c9.24,1.84,16.09,6.09,17.89,7.79c0.35,0.33,0.48,0.93,0.41,1.17
			c-4.97,15.26-8.03,32.45-8.61,52.21c-0.77,26.45,3.52,35.33,4.81,42.21c0.1,0.54-0.36,0.87-0.87,0.81
			c-3.18-0.38-6.39,0.1-5.53,6.18c1.36,9.64,1.57,22.23,11.19,21.87c9.2-0.35,1.36,41.68-17.54,40.04
			c-11.17-0.97-67.11-39.14-53.28-37.79c4.09,0.4-14.12-1.89-18.16-5.44c-22.06-19.42,12.98-42.73,12.73-90.05
			C434.73,56.46,468.86,46.04,491.87,50.63z"/>
	</g>
	<g>
		<polygon class="st4" points="389.78,192.5 342.09,192.5 340.45,146.57 388.15,146.57 		"/>
		<path class="st5" d="M479.28,254.11c-2.69-9.75-5.63-23.55-6.85-34c-1.06-9.08-2.9-19.7-6.48-28.2
			c-5.2-12.34-19.9-8.05-29.66-8.75c-2.37-0.17-3.73-0.17-5-1.6c-2.41-2.71-3.3-11.47-1.26-21.81c0.61-3.07,2.63-3.15,6.86-2.77
			c-1.75-1.35-3.89-9.74-3.85-11.68c-3.63-2.8-3.47-2.59-7.88-2.62c-5.07-0.03-9.61-0.62-14.3-2.53c-2.3-0.93-8.83-5.67-11.71-3.01
			c-2.24,2.07-0.17,6.23,0.29,8.88c1.88,10.92,3.88,21.71,2.15,32.64c-0.54,3.4-10.56,3.11-12.96,5.65
			c-2.58,2.72-4.52,1.74-15.2,1.35c-5.56-0.2-18.32-3-25.33,1.73c-7.26,4.9-6.51,12.14-6.3,19.64c0.72,20.27,0.14,34.21,1.07,47.07
			H479.28z"/>
		<path class="st6" d="M348.08,187.4c3.49-2.35,10.21-2.76,12.1-2.71c11.11,0.8,14.38,15.97,25.05,22.79
			c13.34,8,29.64,17.37,50.55,9.06c12.75-5.07,13.91-24.66,8.09-33.45c8.7-0.33,18.19-0.4,22.07,8.82c3.58,8.5,5.42,19.12,6.48,28.2
			c1.22,10.44,4.16,24.25,6.85,34H342.85c-0.93-12.86-0.35-26.8-1.07-47.07C341.57,199.54,340.82,192.29,348.08,187.4z"/>
		<g>
			<path class="st5" d="M437,72.54c2.25,0.41-3.94,4.53,0.54,10.43c3.37,4.44,15.17,10.46,15.78,18.86
				c0.33,4.53,0.33,6.01,5.1,15.73c1.68,3.43,2.51,3.9,2.1,5.94c-0.77,3.86-6.3,1.98-6.69,4.42c-0.3,1.86,0.65,2.92,2.38,4.2
				c0.9,0.67,1.21,1.66,1,2.69c-0.48,2.45-4.26,1.08-4.51,3.26c-0.27,2.34,4.1,1.64,3.18,4.77c-0.64,2.19-2.78,1.23-3.11,3.96
				c-0.26,2.11,2.25,3.07,1.6,6.37c-0.78,3.95-3.78,4.18-8.31,4.24c-7.25,0.11-15.9-0.87-19.93-2.91
				c-5.35-2.71-10.28-7.93-14.91-16.05c-3.08-5.41-6.21,7.43-9.55,2.81c-2.17-3-3.9-3.93-6.75-4.12
				c-5.16-0.34-8.16-14.84-8.99-19.59c-0.91-5.19-4.4-0.64-0.14-2.51c5.48-2.4,12.31,4.22,16.37-0.81c2.06-2.55,1.78-6.6,2.24-9.61
				c0.44-2.82,1.27-5.62,2.61-8.14c1.28-2.42,3.19-4.21,4.89-6.4c2.03-2.63,3.07-5.4,4.07-8.51C418.13,74.78,437,72.54,437,72.54z"
				/>
			<path class="st4" d="M418.43,232.99h-3.69c-0.2,0-0.36-0.15-0.39-0.34l-0.9-6.57c-0.04-0.34-0.57-0.34-0.62,0l-0.71,6.58
				c-0.03,0.19-0.19,0.34-0.39,0.34h-3.4c-0.16,0-0.31-0.1-0.36-0.25l-0.59-2.95c-0.09-0.24-0.47-0.25-0.58-0.01l-0.65,2.98
				c-0.06,0.14-0.2,0.23-0.36,0.23h-32.28c-0.8,0-1.45-0.64-1.45-1.44c0-9.42-1.64-103.3-1.64-122.72c0-11.9,0.96-21.47,4.85-30.07
				c3.39-7.51,11.14-14.29,19.38-18.41c7.92-3.96,21.86-4.65,32.82-2.74c10.95,1.91,19.25,7.39,22.06,10.3
				c5.33,5.52,9.6,11.49,11.12,19.69c0.81,4.38,1.39,13.58,1.46,20.02c0.01,0.67-0.52,1.21-1.18,1.21h-15.22
				c-0.41,0-0.76-0.31-0.8-0.73l-1.06-8.95c-0.05-0.38-0.6-0.38-0.64,0l-0.95,8.93c-0.04,0.42-0.39,0.74-0.81,0.74h-5.95
				c-0.37,0-0.69-0.25-0.78-0.61l-0.6-2.27c-0.08-0.31-0.53-0.32-0.62-0.01l-0.73,2.32c-0.11,0.34-0.42,0.58-0.77,0.58h-12.25
				c-0.83,0-1.51,0.69-1.51,1.54l1.64,121.16C419.88,232.34,419.23,232.99,418.43,232.99z"/>
		</g>
	</g>
	<g>
		<path class="st7" d="M405.64,254.11c-0.31-1.38-0.54-2.51-0.62-3.11c-1.34-10.45-5.01-20.45-6.23-30.89
			c-1.06-9.08-2.9-19.34-6.48-27.84c-6.46-15.34-30.85-4.98-38.94-10.45c-5.62-3.8-5.24-13.41-3.45-24.8
			c0.49-3.09,3.93-3.26,9.04-3.08c-1.7-1.41-4.68-9.44-4.58-11.38c-3.53-2.92-3.38-2.71-7.79-2.89
			c-5.07-0.21-13.32-15.23-17.95-17.3c-2.26-1.01-4.89,8.31-7.85,10.87c-2.31,1.99-0.38,6.22-0.01,8.89
			c1.51,10.97,2.79,20.27-0.82,30.73c-1.12,3.25-2.24,7.65-4.64,10.19c-2.58,2.72-6.56,3.6-15.05,3.23
			c-13.16-0.57-19.49-3.02-25.82,0.76c-7.51,4.5-6.79,10.19-7.59,17.69c-1.74,16.24-3.19,32.91-4.15,49.37H405.64z"/>
		<g>
			<path class="st7" d="M372.94,93.93c0.89,3.26,0.26,1.88,0.03,6.99c-0.29,6.45,3.01,13.86,7.39,16.53
				c2.81,1.71,2.31,4.94,0.02,5.74c-1.85,0.64-5.22,0.85-4.86,3.83c0.33,2.73,3.06,2.01,2.81,4.59c-0.27,2.88-3.77,0.99-4.1,3.71
				c-0.27,2.28,3.21,0.84,3.07,4c-0.12,2.59-3.06,2.09-3.38,3.99c-0.57,3.31,2.32,4.76-0.45,8.24c-2.58,3.25-14.41,2.53-18.03,2.31
				c-13.01-0.79-17.62-6.66-21.78-13.79c-5.39-9.24-5.79-23.23-7.44-27.38c-3.31-8.35-7.38-15.95-1.56-21.9
				c7.14-7.29,16.96-11.39,27.01-12.58c5.14-0.61,7.19-3.19,12.17-1.51C366.93,77.74,370.73,85.85,372.94,93.93z"/>
			<path class="st8" d="M268.5,103.25c1.32-1.9,0.95-4.54-0.89-5.95c-6.98-5.36-7.9-14.34-4.83-22.28
				c2.59-6.68,9.73-11.12,17.9-11.41c2.52-0.09,4.46-2.24,4.23-4.75c-0.74-8.09,1.22-21.02,14.48-26.28
				c13.38-5.31,25.27-2.39,34.49,6.12c1.88,1.74,4.78,1.85,6.74,0.19c6.63-5.61,15.98-6.78,23.94-4.98
				c19.91,4.5,19.73,21.66,15.54,29.46c-0.48,0.9-0.09,2.01,0.89,2.3c15.75,4.71,16.02,22.31,8.59,29.86
				c-8.26,8.38-17.49,4.59-21.65,2.86c-1.65-0.69-3.55-1.36-3.97,1.67c-0.33,2.38-1.34,5.45-2.47,7.88
				c-2.37,5.11-6.16,8.27-12.19,8.77c-1.62,0.13-2.83,0.08-3.78-0.06c-1.39-0.21-2.6,0.9-2.54,2.31c0.2,4.39-2.05,7.46-3.57,8.53
				c-3.29,2.32-6.56,2.81-9.55,2.3c-1.59-0.28-2.85,1.18-2.07,2.59c2.06,3.69,5.06,10.65,1.42,17.88c-2.55,5.06-6.08,5.74-6.14,8.19
				c-0.06,2.27,1.85,3.02,3.83,8.11c5.56,14.27-9.53,19.39-20.19,19.6c-4.42,0.09-37.22,5.83-42.41-8.31
				c-6.5-17.7,6.87-46.28,4.29-49.27C262.04,120.98,263.86,109.93,268.5,103.25z"/>
		</g>
		<path class="st2" d="M388.61,254.11h-90.55c0.66-11.68,6.11-14.87,6.91-44.94c0.08-3.13-1.43-17.98-4.08-22.86
			c1.87,0.07,3.52,0.07,4.97,0.01c2.67,4.03,4.14,8.17,6.55,12.4c5.56,9.73,14.97,20.74,26.57,24.83
			c9.52,3.35,27.09,2.06,28.52-10.96c1.42-12.94-0.49-22.13-4.13-29c1.86-0.04,3.82-0.12,5.8-0.18c3.92,3.08,5.9,30.13,10.4,42.93
			C383.17,236.55,387.06,240.87,388.61,254.11z"/>
	</g>
	<g>
		<polygon class="st4" points="258.18,194.56 187.22,194.56 185.58,118.6 256.54,118.6 		"/>
		<path class="st9" d="M327.27,254.11c-0.31-1.38-0.54-2.51-0.62-3.11c-1.34-10.45-5.01-20.45-6.23-30.89
			c-1.06-9.08-2.9-19.34-6.48-27.84c-6.46-15.34-31.83-4.98-39.92-10.45c-5.62-3.8-2.61-14.51-0.68-25.38
			c0.55-3.08,1.56-3.41,6.98-2.74c-1.67-1.44-4.01-9.72-3.87-11.66c-3.47-2.99-3.33-2.77-7.73-3.04c-5.07-0.31-9.56-1.14-14.14-3.3
			c-2.24-1.06-8.51-6.14-11.53-3.64c-2.34,1.94-0.5,6.21-0.19,8.89c1.29,11,2.34,18.26-1.27,28.73c-1.12,3.25-3.88,8.43-6.1,11.13
			c-2.38,2.89-8.85,3.88-14.99,3.64c-8.04-0.32-20.34-0.53-25.15,3.47c-6.74,5.6-6.06,9.31-6.86,16.81
			c-1.74,16.24-3.19,32.91-4.15,49.37H327.27z"/>
		<g>
			<path class="st9" d="M283.78,80.06c1.92,0.17,6.32,1.49,9.8,6.66c2.08,3.08,4.09,7.96,4.5,13.26c0.28,3.58-0.9,6.33-0.11,9.67
				c0.93,3.89,3.98,6.45,7.46,7.82c2.61,1.03,3.69,2.57,3.27,5.06c-0.53,3.19-5.22,3.13-5.44,5.5c-0.15,1.58,0.25,1.63,1.61,2.83
				c0.71,0.62,1.21,1.48,0.79,2.67c-0.8,2.31-3.92,1.07-4.15,2.69c-0.23,1.59,3.43,1.18,2.72,4.4c-0.39,1.79-2.93,1.32-3.69,2.98
				c-1.04,2.31,1.71,3.18,1.78,5.7c0.07,2.88-2.05,5.02-6.16,5.32c-6.37,0.46-14.08,0.22-20.05-1.59
				c-5.65-1.71-9.24-4.98-11.68-8.24c-3.13-4.19-3.34-5.25-5.83-9.34c-1.62-2.66-1.18-24.86-0.59-27.36
				c0.55-2.33,6.78-7.78,8.07-9.8c1.24-1.94,2.96-3.31,4.53-5.04c1.88-2.07,2.94-4.32,3.98-6.86
				C276.88,80.82,283.78,80.06,283.78,80.06z"/>
			<path class="st4" d="M259.71,114.15c6.7-7.59,17.93-8.12,27.22-13.11c8.7-4.68,17.52-11.42,19.31-26.52
				c1.3-10.95-4.9-29.4-23.54-35.55c-34.53-11.39-78.93,3.1-91.32,33.77c-9.91,24.53-7.31,50.71,18.16,67.22
				c10.97,7.11,32.05,9.62,42.18,2.78C263.88,134.53,253.67,121,259.71,114.15z"/>
			<path class="st8" d="M262.81,139.42c0.58,4.74-2.8,9.05-7.53,9.62c-4.74,0.58-9.05-2.8-9.62-7.53c-0.58-4.74,2.8-9.05,7.53-9.62
				C257.92,131.31,262.23,134.68,262.81,139.42z"/>
			<path class="st4" d="M253.23,131.52c-4.3-0.63-7.54-5.81-8.61-9.72c-1.17-4.27-1.26-8.13,2.44-9.41
				c4.76-1.64,8.65,5.28,14.06,0.33c6.24-5.71,17.26,12.2,11.03,23.32c-1.57,2.73-3.46,5.5-6.16,6.78c-0.8,0.27-1.5,0.69-2.21,1.07
				c-2.52-3.48-2.88-4.67-5.18-8.45C256.99,132.77,255.61,131.87,253.23,131.52z"/>
			<path class="st8" d="M262.81,139.42c0.58,4.74-2.8,9.05-7.53,9.62c-0.54-4.41-1.19-9.74-2.09-17.16
				C257.92,131.31,262.23,134.68,262.81,139.42z"/>
		</g>
		<path class="st10" d="M217.94,254.11h91.55c-0.32-8.1-3.85-15.98-6.97-23.25c-1.49-3.48-3.23-8.5-4.79-9.6
			c-1.57-1.1-15.67,1.74-29.16,0.3c-21.48-2.3-34.52,1.42-40.28,1.97c-7.1,0.68-6.79,0.59-7.49,7.55
			C220.03,238.78,218.95,246.44,217.94,254.11z"/>
	</g>
	<g>
		<g>
			<path class="st1" d="M259.69,254.11c-3-3.86-8.34-23.55-10.76-34c-2.1-9.08-5.12-19.7-9.68-28.2
				c-8.22-15.34-32.4-4.98-41.13-10.45c-6.06-3.8-3.25-14.68-2.61-26.97c0.16-3.06,1.66-4.36,6.56-3.27
				c-2.07-1.08-9.04-9.11-9.44-10.98c-4.3-2.24-9.26-15.83-13.74-15.32c-5.15,0.58-4.7,14.33-9.88,13.07
				c-2.53-0.62-10.22-4.37-12.53-1.47c-1.8,2.26,1.23,6.01,2.29,8.5c4.35,10.26,4.31,12.8,3.76,23.52
				c-0.17,3.26-0.78,8.89-2.89,11.43c-2.26,2.72-3.38,3.61-14.11,3.23c-8.08-0.29-18.79-2.91-25.13,1.73
				c-6.7,4.9-5.25,12.31-5.19,19.81c0,0.16,0,0.32,0,0.49c0.23,27.09,22.39,48.88,49.48,48.88H259.69z"/>
			<path class="st2" d="M248.93,220.11c-2.1-9.08-5.12-19.7-9.68-28.2c-7.68-14.32-29.25-6.25-39.19-9.56
				c3.88,6.25,1.98,26.07-0.73,35.01c-0.4,1.33-2.14,1.59-2.93,0.45c-9.54-13.82-22.98-29.9-38.01-36.59
				c-1.69,1.74-4.02,2.29-12.85,1.97c-8.08-0.29-18.79-2.91-25.13,1.73c-6.7,4.9-5.25,12.31-5.19,19.81c0,0.16,0,0.32,0,0.49
				c0.23,27.09,22.39,48.88,49.48,48.88h94.98C256.69,250.24,251.35,230.55,248.93,220.11z"/>
			<path class="st1" d="M209.93,69.08c2.13,0.4,2.82-1.86,6.03,4.36c3.49,6.78,6.08,17.11,6.63,25.08c0.37,5.4,1.56,9.28,5.97,15.04
				c1.92,2.51,3.71,4.11,3.02,6.18c-0.88,2.61-5.07,2.03-5.9,4.57c-0.29,0.89,0.7,2.71,1.69,4.35c0.55,0.91,0.91,1.54,0.31,2.82
				c-1.16,2.49-3.91,1.44-4.14,3.26c-0.17,1.36,3.07,0.87,2.47,4.42c-0.25,1.51-2.21,0.52-3.24,2.3c-1.43,2.47,0.41,5.16-0.32,7.88
				c-0.76,2.81-3.3,4.56-7.94,4.43c-1.55-0.04-17.93-2.93-24.01-5.47c-6.13-2.55-7.15-4.64-8.92-8.86
				c-2.28-5.46-17.92-1.77-20.24-6.63c-1.51-3.16-3.49-33.71-2.54-36.44c0.88-2.55,27.62-6.79,29.29-8.9
				c1.61-2.03,3.68-3.37,5.63-5.13c2.34-2.1,3.78-4.5,5.23-7.23C202.12,69.16,209.93,69.08,209.93,69.08z"/>
		</g>
		<path class="st10" d="M199.04,36.41c-31.43-10.59-64.79,5.15-85.98,28.25c-32.82,35.79-23.72,46.77-60.2,66.93
			c-13.64,7.54-26.14,5.08-33.77,3.72c-2.67-0.48-4.25,1.94-3.25,4.46c3.52,8.91,16.83,23.35,36.77,32.1
			c21.85,9.59,64.47,10.97,88.27,0.65c18.29-7.93,33.57-18.22,38.03-33.64c1.9-6.58,1.02-10.23-6.06-13.34
			c-4.97-2.19-8.8-7.46-9.98-12.38c-1.48-6.21-0.53-10.75,4.32-11.34c7.27-0.89,7.89,6.12,11.41,5.97c2.13-0.09,3.45-1.58,5.29-4.13
			c0.1-0.15,0.2-0.3,0.31-0.46c12.3-18.14,37.2-5.64,39.96-25.76C225.95,64.42,216.73,42.37,199.04,36.41z"/>
	</g>
</g>
</svg>
