<svg xmlns="http://www.w3.org/2000/svg" viewBox="0 0 424.21 266.02"><defs><style>.cls-1{fill:#fcdec9;}.cls-2{fill:#f1866a;}.cls-3{fill:#361d18;}</style></defs><g id="Layer_2" data-name="Layer 2"><g id="Lager_1" data-name="Lager 1"><path class="cls-1" d="M291.64,25.19C291.64,8.11,274.8,0,251.75,8.75a19.69,19.69,0,0,1-4.09.92c-7.88,1.17-15.85-1.61-22.86-5.39l-.09,0A34.68,34.68,0,0,0,202.49.47l-.15,0C179.17,4.42,156,19.81,144.41,39.21c-25.09,41.88-6.38,77,19.49,88a101.36,101.36,0,0,0,28.33,7.42c29,3.26,59.84-9.82,68.92-47.7,1-4.2.61-17.18,11.7-30.22,6.37-7.47,18.79-17.84,18.79-31.53"/><path class="cls-2" d="M188.72,37.3a32.18,32.18,0,0,1,8.73,4.09,30.16,30.16,0,0,1,10.63,11.92c4.47,9.14,7.94,26.09-12.82,44a37.59,37.59,0,0,1-11.7,6.93c-8.93,3.23-23.83,5.76-28.66-10.68,0,0-6.28-20.79,1.58-39.9,5.24-12.74,19-20.2,32.24-16.38"/><path class="cls-2" d="M223.92,27.13s-9.77-11.83-23.49-10.37a9.19,9.19,0,0,0-7.07,4.47c-1.77,3.16-1.68,7.74,9,11.54,0,0,31.8,10.77,24,41.11a43.93,43.93,0,0,1-10.56,18.79,61.16,61.16,0,0,1-6,5.34,48.91,48.91,0,0,1-7.17,4.66c-3.61,2-9,6-5.24,11.48,0,0,9.67,10.07,27.46-6.85,0,0,13.69-13.39,21.31-45.12.3-1.25.54-2.52.8-3.79.71-3.55,3.65-13.9,14.34-18.51,0,0,6.6-2.07,9.41-6.19a6,6,0,0,0-2.48-8.78c-2.78-1.42-7.18-2-12.85,2.75a26.86,26.86,0,0,0-5.57,6.58l-5.49,8.85a4.12,4.12,0,0,1-6.67.46Z"/><polygon class="cls-3" points="110.06 250.81 105.15 250.81 105.15 247.91 118.02 247.91 118.02 250.81 113.11 250.81 113.11 265.72 110.06 265.72 110.06 250.81"/><polygon class="cls-3" points="125.86 255.13 132.98 255.13 132.98 258.04 125.86 258.04 125.86 262.82 133.74 262.82 133.74 265.72 122.8 265.72 122.8 247.91 133.59 247.91 133.59 250.81 125.86 250.81 125.86 255.13"/><path class="cls-3" d="M152.06,261l2,2a9.24,9.24,0,1,1-.26-12.6l-2.06,2a6.12,6.12,0,0,0-4.53-2c-3.51,0-5.92,2.93-5.92,6.36s2.41,6.36,5.92,6.36a6.35,6.35,0,0,0,4.81-2.18"/><polygon class="cls-3" points="169.64 247.91 172.69 247.91 172.69 265.72 169.64 265.72 169.64 258.06 162.03 258.06 162.03 265.72 158.98 265.72 158.98 247.91 162.03 247.91 162.03 255.16 169.64 255.16 169.64 247.91"/><polygon class="cls-3" points="181.75 247.91 190.66 260.17 190.66 247.91 193.71 247.91 193.71 265.72 190.96 265.72 182.06 253.48 182.06 265.72 179.01 265.72 179.01 247.91 181.75 247.91"/><path class="cls-3" d="M217,256.81a9,9,0,1,1-9-9.21,8.86,8.86,0,0,1,9,9.21m-3.1,0c0-3.43-2.32-6.31-5.9-6.31s-5.91,2.88-5.91,6.31,2.32,6.31,5.91,6.31,5.9-2.87,5.9-6.31"/><polygon class="cls-3" points="222.31 247.91 225.36 247.91 225.36 262.82 232.94 262.82 232.94 265.72 222.31 265.72 222.31 247.91"/><path class="cls-3" d="M254.56,256.81a9,9,0,1,1-9-9.21,8.86,8.86,0,0,1,9,9.21m-3.1,0c0-3.43-2.32-6.31-5.9-6.31s-5.91,2.88-5.91,6.31,2.32,6.31,5.91,6.31,5.9-2.87,5.9-6.31"/><path class="cls-3" d="M271.79,262.31v-3.77h-4.05v-2.85h7.05v8.09A9.71,9.71,0,0,1,268.2,266a9.14,9.14,0,0,1-9.36-9.21,9,9,0,0,1,9.23-9.21,8.81,8.81,0,0,1,6.59,2.67l-2.08,2a5.9,5.9,0,0,0-4.51-1.86,6.18,6.18,0,0,0-6.13,6.36,6.28,6.28,0,0,0,6.26,6.37,5.88,5.88,0,0,0,3.59-.87"/><rect class="cls-3" x="280.9" y="247.91" width="3.05" height="17.81"/><polygon class="cls-3" points="293.67 255.13 300.79 255.13 300.79 258.04 293.67 258.04 293.67 262.82 301.55 262.82 301.55 265.72 290.61 265.72 290.61 247.91 301.4 247.91 301.4 250.81 293.67 250.81 293.67 255.13"/><path class="cls-3" d="M312.7,258.29c-2.62-.92-5.57-2.34-5.57-5.65,0-2.52,2.23-5,5.82-5a7.64,7.64,0,0,1,5.8,2.83l-2.11,2.08a5.12,5.12,0,0,0-3.69-2,2.47,2.47,0,0,0-2.72,2.14c0,1.55,1.4,2,3.84,3,2.72,1,5,2.24,5,5.47s-2.85,5-6.21,5a7.78,7.78,0,0,1-6.51-3.63l2.29-1.94s1.52,2.67,4.22,2.67c1.53,0,3.1-.61,3.1-2.06s-1.14-2-3.25-2.77"/><path class="cls-3" d="M1.79,235.91a1.66,1.66,0,0,1-.56-.12,2.32,2.32,0,0,1-.66-.35A1.6,1.6,0,0,1,.13,235a1.05,1.05,0,0,1-.13-.54V178.72a1.35,1.35,0,0,1,.12-.64,3.39,3.39,0,0,1,.49-.64,1.15,1.15,0,0,1,.43-.21,3.43,3.43,0,0,1,.75-.08H7.33a1.59,1.59,0,0,1,.66.1.93.93,0,0,1,.34.27,2.62,2.62,0,0,1,.34.62,9.62,9.62,0,0,1,.36,1l2.24,6.44,1.28-1.65c.69-.88,1.38-1.78,2.08-2.7a12.61,12.61,0,0,1,2.27-2.29A11.47,11.47,0,0,1,20,177.26a12.91,12.91,0,0,1,4.44-.66,21.88,21.88,0,0,1,8.8,1.75,20.87,20.87,0,0,1,6.92,4.84,22.23,22.23,0,0,1,4.55,7.26,25.64,25.64,0,0,1,0,18.1,22.55,22.55,0,0,1-4.55,7.28,21,21,0,0,1-6.92,4.85,21.62,21.62,0,0,1-8.8,1.78A12.4,12.4,0,0,1,20.7,222a11.22,11.22,0,0,1-2.78-1.35,13.55,13.55,0,0,1-2.17-1.85c-.68-.73-1.35-1.46-2-2.19l-2-2.21v20.06a1.66,1.66,0,0,1-.38,1.13,1.53,1.53,0,0,1-1.19.37ZM23.5,186.82a12.52,12.52,0,0,0-4.82,1,13,13,0,0,0-4,2.57,13.23,13.23,0,0,0-2.77,3.83,12.32,12.32,0,0,0-1.19,4.74v.6a12.5,12.5,0,0,0,1,5,12.79,12.79,0,0,0,2.73,4.05,13.25,13.25,0,0,0,4.06,2.71,12.43,12.43,0,0,0,5,1,11.1,11.1,0,0,0,4.77-1,11.33,11.33,0,0,0,3.7-2.75,12.18,12.18,0,0,0,2.38-4.05,14.38,14.38,0,0,0,.84-4.93,14,14,0,0,0-.84-4.84,12.64,12.64,0,0,0-2.37-4,11.39,11.39,0,0,0-3.71-2.77,11.1,11.1,0,0,0-4.77-1"/><path class="cls-3" d="M86.55,221.61c-1.13,0-1.39-.22-1.4-.23a2.19,2.19,0,0,1-.21-1.23V195.92a8.22,8.22,0,0,0-.71-3.4A8.65,8.65,0,0,0,79.6,188a8.77,8.77,0,0,0-3.35-.65,7.81,7.81,0,0,0-3,.61,8.81,8.81,0,0,0-2.62,1.74,9.46,9.46,0,0,0-1.91,2.64,8.85,8.85,0,0,0-.91,3.44V220a2.37,2.37,0,0,1-.17.84.85.85,0,0,1-.3.42,1.87,1.87,0,0,1-.53.24,2.77,2.77,0,0,1-.69.07H57.81a2.09,2.09,0,0,1-1.43-.39,1.85,1.85,0,0,1-.4-1.29V165.14a1.79,1.79,0,0,1,.4-1.25,2.06,2.06,0,0,1,1.43-.4h8.28a2.8,2.8,0,0,1,1.31.44,1.06,1.06,0,0,1,.22.38,2.25,2.25,0,0,1,.16.76v19.72l2.08-3.06a8.74,8.74,0,0,1,1.7-1.79,13.55,13.55,0,0,1,2.61-1.65,17.19,17.19,0,0,1,3.31-1.2,15.82,15.82,0,0,1,3.83-.46A14.35,14.35,0,0,1,88,178.11a13.46,13.46,0,0,1,4.66,4,18.7,18.7,0,0,1,2.8,6.12,30.72,30.72,0,0,1,.93,7.65v24a2.25,2.25,0,0,1-.33,1.37,1.46,1.46,0,0,1-1.06.31Z"/><path class="cls-3" d="M128.86,222.46a22.82,22.82,0,0,1-11.54-3.09,22.4,22.4,0,0,1-4.59-3.56,22.63,22.63,0,0,1-5.83-10.13,23.25,23.25,0,0,1-.81-6.17,22.84,22.84,0,0,1,1.78-9,23.23,23.23,0,0,1,4.86-7.28,22.62,22.62,0,0,1,16.13-6.6,15.94,15.94,0,0,1,3.94.47,15.37,15.37,0,0,1,3.34,1.29,13.32,13.32,0,0,1,2.72,1.95,15.61,15.61,0,0,1,2.15,2.47l1.32,1.9,1.76-5.54.57-1.39a1.7,1.7,0,0,1,.26-.47.35.35,0,0,1,.14-.07,4.68,4.68,0,0,1,.88-.06h5.46a4,4,0,0,1,.74.09.68.68,0,0,1,.37.2l.1.09a1.2,1.2,0,0,1,.39.47,1.94,1.94,0,0,1,.12.72V220a2.07,2.07,0,0,1-.14.78.66.66,0,0,1-.29.35l-.1.06-.08.09a.68.68,0,0,1-.37.2,4,4,0,0,1-.74.09h-7.22a2.16,2.16,0,0,1-.8-.11.75.75,0,0,1-.33-.23,2.17,2.17,0,0,1-.31-.59c-.14-.35-.28-.72-.42-1.13l-1-3.44L140,217.47a19,19,0,0,1-2.13,1.84,16.23,16.23,0,0,1-2.6,1.59,16.82,16.82,0,0,1-3,1.14,13,13,0,0,1-3.32.42m-.11-35.79a11.1,11.1,0,0,0-4.84,1.05,11.39,11.39,0,0,0-3.72,2.83,12.76,12.76,0,0,0-2.36,4.11,14.53,14.53,0,0,0-.82,4.85,14.71,14.71,0,0,0,.82,4.91,12,12,0,0,0,2.37,4,11.43,11.43,0,0,0,8.55,3.71,12.87,12.87,0,0,0,5-1,13.1,13.1,0,0,0,4-2.68,12.46,12.46,0,0,0,2.69-4,13.19,13.19,0,0,0,0-9.88,13.38,13.38,0,0,0-2.67-4.1,12.93,12.93,0,0,0-4-2.79,12.26,12.26,0,0,0-5-1"/><path class="cls-3" d="M165.92,221.61c-1.29,0-1.72-.42-1.72-1.68v-41a1.62,1.62,0,0,1,.14-.7,1.24,1.24,0,0,1,.36-.45,1.9,1.9,0,0,1,.58-.31,2.67,2.67,0,0,1,.71-.11h5.54a.85.85,0,0,1,.66.22,3.44,3.44,0,0,1,.7,1,12.22,12.22,0,0,1,.62,1.72,21.76,21.76,0,0,0,.74,2.1l.7,1.65,3.37-3.7a15.22,15.22,0,0,1,2.17-1.94,10.26,10.26,0,0,1,2.46-1.34,8.31,8.31,0,0,1,3-.49,18.16,18.16,0,0,1,3.33.27,13.73,13.73,0,0,1,2.73.8,15.27,15.27,0,0,1,2.59,1.35c.88.57,1.84,1.22,2.93,2,.77.45,1.11.84,1.11,1.24a2.67,2.67,0,0,1-.47,1.29l-3.34,5.68a1.68,1.68,0,0,1-1.47.87,2.83,2.83,0,0,1-1-.23,12.54,12.54,0,0,0-3.37-2.36,10,10,0,0,0-4.2-.86,8.26,8.26,0,0,0-2.91.48,8,8,0,0,0-2.29,1.33,11.42,11.42,0,0,0-1.83,2c-.54.72-1.08,1.52-1.6,2.36l-.17.27v26.87a1.91,1.91,0,0,1-.36,1.32,2.11,2.11,0,0,1-1.43.36Z"/><path class="cls-3" d="M262.2,221.61c-1.12,0-1.39-.23-1.39-.23s-.22-.25-.22-1.23V195.92a9.74,9.74,0,0,0-.56-3.33,8.47,8.47,0,0,0-1.59-2.72,7.26,7.26,0,0,0-2.53-1.87,7.93,7.93,0,0,0-3.27-.66,7.58,7.58,0,0,0-3.1.64,8.23,8.23,0,0,0-2.55,1.77,8.49,8.49,0,0,0-1.77,2.71,9,9,0,0,0-.65,3.46v24a2.11,2.11,0,0,1-.34,1.37,1.42,1.42,0,0,1-1,.31h-8.47c-1.13,0-1.39-.22-1.4-.23a2.19,2.19,0,0,1-.21-1.23V195.92a10.33,10.33,0,0,0-.52-3.3,8.33,8.33,0,0,0-1.53-2.74,7.14,7.14,0,0,0-2.48-1.87,7.57,7.57,0,0,0-3.24-.67,7.81,7.81,0,0,0-3,.61,8.81,8.81,0,0,0-2.62,1.74,9.69,9.69,0,0,0-1.92,2.64,9,9,0,0,0-.9,3.44V220a2.37,2.37,0,0,1-.17.84.85.85,0,0,1-.3.42,2.24,2.24,0,0,1-.53.24,2.82,2.82,0,0,1-.69.07h-8.29a2.08,2.08,0,0,1-1.42-.39,1.85,1.85,0,0,1-.41-1.29v-41a1.5,1.5,0,0,1,.18-.74,1.28,1.28,0,0,1,.44-.48l0,0a1,1,0,0,1,.45-.23,3.74,3.74,0,0,1,.78-.09h5.54a1.34,1.34,0,0,1,.62.12,1.27,1.27,0,0,1,.44.35,2.1,2.1,0,0,1,.35.6c.13.33.25.67.37,1l1.48,6.21,1.39-2.86a11.11,11.11,0,0,1,1.42-2.1,10.26,10.26,0,0,1,2.34-2,13.61,13.61,0,0,1,3.48-1.5,18.84,18.84,0,0,1,8.72-.17,12,12,0,0,1,3.15,1.23,12.32,12.32,0,0,1,2.59,2,18.63,18.63,0,0,1,2.29,2.81l1,1.46.93-1.5a10,10,0,0,1,1.86-2.12,15.51,15.51,0,0,1,3.06-2.11,19.25,19.25,0,0,1,4-1.59,17.24,17.24,0,0,1,4.68-.62,14.6,14.6,0,0,1,6.77,1.49,13.83,13.83,0,0,1,4.8,4,18.66,18.66,0,0,1,2.91,6.12,28.84,28.84,0,0,1,1,7.63v24a2.18,2.18,0,0,1-.33,1.37,1.46,1.46,0,0,1-1.06.31Z"/><path class="cls-3" d="M284.72,221.61c-1,0-1.58-.27-1.58-1.68V179.05a2,2,0,0,1,.42-1.31c.08-.1.32-.41,1.16-.41h8.39a1.44,1.44,0,0,1,.54.13,2,2,0,0,1,.61.37,2.78,2.78,0,0,1,.54.64,1.16,1.16,0,0,1,.14.58v40.88c0,.89-.3,1.18-.4,1.27a2.1,2.1,0,0,1-1.43.41Z"/><path class="cls-3" d="M320.6,222.57a27.06,27.06,0,0,1-4.42-.39,20.63,20.63,0,0,1-4.31-1.23,19.62,19.62,0,0,1-3.95-2.19,15.19,15.19,0,0,1-3.27-3.19,2.42,2.42,0,0,1-.44-.77,1.78,1.78,0,0,1-.12-.7,1.61,1.61,0,0,1,.12-.58.94.94,0,0,1,.29-.35l.06,0,4.79-4.79a1,1,0,0,1,.43-.23,4.4,4.4,0,0,1,1.27,1,11.69,11.69,0,0,0,2.36,1.83,17.39,17.39,0,0,0,2.37,1.18,14.66,14.66,0,0,0,2,.65,6.41,6.41,0,0,0,1.36.21c.48,0,1.09,0,1.83-.05a11,11,0,0,0,2.32-.37,5.5,5.5,0,0,0,2.15-1.14,3.34,3.34,0,0,0,1.1-2.62,4,4,0,0,0-.59-2.26,4.43,4.43,0,0,0-1.57-1.39,10.76,10.76,0,0,0-2.12-.85l-2.49-.76a29.3,29.3,0,0,1-7-2.73,15,15,0,0,1-4.22-3.42,11,11,0,0,1-2.11-4,17.18,17.18,0,0,1-.62-4.65,11.39,11.39,0,0,1,1.1-5,11.15,11.15,0,0,1,3.13-3.88,15.2,15.2,0,0,1,5-2.55,23.94,23.94,0,0,1,10.71-.56,16.47,16.47,0,0,1,3.59,1.13,18,18,0,0,1,3.36,2,27.83,27.83,0,0,1,3.33,3,1.15,1.15,0,0,1,.32.61,2,2,0,0,1-.44.49c-.93.77-1.85,1.55-2.73,2.31s-1.83,1.66-2.75,2.59a1.11,1.11,0,0,1-.31.14l-.16,0-.15,0a1.6,1.6,0,0,1-.42-.2,2.63,2.63,0,0,1-.42-.4,7.57,7.57,0,0,0-3.49-2.31,12,12,0,0,0-3.41-.54,6.7,6.7,0,0,0-3.43.78,3.07,3.07,0,0,0-1.56,3,3.25,3.25,0,0,0,1.13,2.3,6.35,6.35,0,0,0,1.93,1.06,15.21,15.21,0,0,0,2.14.57,18.72,18.72,0,0,1,1.82.44,54.77,54.77,0,0,1,5.9,2.25,17.24,17.24,0,0,1,4.47,2.87,11.47,11.47,0,0,1,2.86,4,14.28,14.28,0,0,1,1,5.7,13.08,13.08,0,0,1-1.33,6,12.72,12.72,0,0,1-3.66,4.41,17.1,17.1,0,0,1-5.62,2.79,25.2,25.2,0,0,1-7.14,1"/><path class="cls-3" d="M353,221.61c-1.27,0-1.69-.42-1.69-1.68l0-32.08h-4.91c-1.07,0-1.69-.3-1.69-1.83v-7.08c0-1.23.43-1.65,1.69-1.65h4.91l0-8.35c0-.58.21-.74.3-.81a7.2,7.2,0,0,1,1.85-.91l8.19-2.85.4,0c.44,0,.75.09.83.22a3.09,3.09,0,0,1,.3,1.5l0,11.22h6.17a1.46,1.46,0,0,1,1.12.39,1.71,1.71,0,0,1,.38,1.26V186a2.14,2.14,0,0,1-.39,1.43,1.47,1.47,0,0,1-1.11.4h-6.16l0,32.08a1.53,1.53,0,0,1-.42,1.26,2.22,2.22,0,0,1-1.48.42Z"/><path class="cls-3" d="M399.94,222.46a22.82,22.82,0,0,1-11.54-3.09,22.4,22.4,0,0,1-4.59-3.56A22.63,22.63,0,0,1,378,205.68a23.25,23.25,0,0,1-.81-6.17,22.84,22.84,0,0,1,1.78-9,23.23,23.23,0,0,1,4.86-7.28,22.62,22.62,0,0,1,16.13-6.6,15.94,15.94,0,0,1,3.94.47,14.89,14.89,0,0,1,3.34,1.3,12.91,12.91,0,0,1,2.72,1.94,14.71,14.71,0,0,1,2.15,2.47l1.32,1.9,1.76-5.54c.21-.53.42-1,.57-1.39a1.7,1.7,0,0,1,.26-.47.26.26,0,0,1,.14-.07,4.68,4.68,0,0,1,.88-.06h5.46a4,4,0,0,1,.74.09.68.68,0,0,1,.37.2l.1.09a1.25,1.25,0,0,1,.39.46,2,2,0,0,1,.13.73V220a2.08,2.08,0,0,1-.15.78.66.66,0,0,1-.29.35l-.1.06-.09.09a.62.62,0,0,1-.36.2,4,4,0,0,1-.74.09h-7.22a2.16,2.16,0,0,1-.8-.11.81.81,0,0,1-.33-.23,2.17,2.17,0,0,1-.32-.59c-.13-.35-.27-.72-.41-1.13l-1-3.44-1.36,1.36a20,20,0,0,1-2.14,1.84,15.8,15.8,0,0,1-2.6,1.59,16.54,16.54,0,0,1-3.05,1.14,13,13,0,0,1-3.32.42m-.11-35.79a11.1,11.1,0,0,0-4.84,1.05,11.39,11.39,0,0,0-3.72,2.83,12.76,12.76,0,0,0-2.36,4.11,14.93,14.93,0,0,0,0,9.76,12,12,0,0,0,2.37,4,11.43,11.43,0,0,0,8.55,3.71,12.87,12.87,0,0,0,5-1,13.1,13.1,0,0,0,4-2.68,12.46,12.46,0,0,0,2.69-4,12.94,12.94,0,0,0,1-5,12.79,12.79,0,0,0-1-4.91,13.26,13.26,0,0,0-2.67-4.1,12.82,12.82,0,0,0-4-2.79,12.26,12.26,0,0,0-5-1"/><path class="cls-3" d="M289,169.13a7.69,7.69,0,1,1,7.69-7.69,7.69,7.69,0,0,1-7.69,7.69"/></g></g></svg>